# xmcd
#
# Track frame offsets:
# 150
# 13823
# 33936
# 47715
# 61965
# 80014
# 103692
# 130683
# 143590
# 162175
# 174996
# 192935
# 206060
#
# Disc length: 2855 seconds
#
#
# Revision: 0
# Processed by: cddbd v1.5.2PL0 Copyright (c) Steve Scherf et al.
# Submitted via: FreeRIP 2.96 
#
DISCID=ab0b250d
DTITLE=John Lisi and Delta Funk! [USA] [LA] - Shut the Front Door!
DYEAR=2015
DGENRE=Blues
TTITLE0=Alright, Alright [from 'Shut the Front Door!', Jul 2015] [MLVox]
TTITLE1=There Will Be [from 'Shut the Front Door!', Jul 2015] [MLVox]
TTITLE2=Break in the Rain [from 'Shut the Front Door!', Jul 2015] [MLVox]
TTITLE3=You Got Me There [from 'Shut the Front Door!', Jul 2015] [MLVox]
TTITLE4=Blue Hair Blonde [from 'Shut the Front Door!', Jul 2015] [MLVox]
TTITLE5=Where'd Ya' Go Radio? [from 'Shut the Front Door!', Jul 2015] [MLVox]
TTITLE6=No Good Man [from 'Shut the Front Door!', Jul 2015] [MLVox]
TTITLE7=How? When? Why? [from 'Shut the Front Door!', Jul 2015] [MLVox]
TTITLE8=Pink Haired Space Girl [from 'Shut the Front Door!', Jul 2015] [MLVox]
TTITLE9=Java Man [from 'Shut the Front Door!', Jul 2015] [MLVox]
TTITLE10=We Sho' Aint Saints [from 'Shut the Front Door!', Jul 2015] [MLVox]
TTITLE11=Porcelain Doll [from 'Shut the Front Door!', Jul 2015] [MLVox]
TTITLE12=Mariposa [from 'Shut the Front Door!', Jul 2015] [MLVox]
EXTD=
EXTT0=
EXTT1=
EXTT2=
EXTT3=
EXTT4=
EXTT5=
EXTT6=
EXTT7=
EXTT8=
EXTT9=
EXTT10=
EXTT11=
EXTT12=
PLAYORDER=
